{
    "asset" : {
        "generator" : "Khronos glTF Blender I/O v3.4.50",
        "version" : "2.0"
    },
    "scene" : 0,
    "scenes" : [
        {
            "name" : "Scene",
            "nodes" : [
                0,
                1,
                2,
                3,
                4
            ]
        }
    ],
    "nodes" : [
        {
            "mesh" : 0,
            "name" : "Tree",
            "rotation" : [
                0.3540812134742737,
                0.612067461013794,
                -0.6120673418045044,
                0.35408130288124084
            ],
            "scale" : [
                0.009999999776482582,
                0.009999999776482582,
                0.009999999776482582
            ],
            "translation" : [
                -0.10538223385810852,
                0.19731269776821136,
                0.3293037414550781
            ]
        },
        {
            "mesh" : 1,
            "name" : "Green_platform",
            "rotation" : [
                0,
                0.7653548121452332,
                0,
                0.643608570098877
            ],
            "scale" : [
                0.009999999776482582,
                0.009999999776482582,
                0.009999999776482582
            ],
            "translation" : [
                -0.01754789426922798,
                0.16460935771465302,
                -0.055641382932662964
            ]
        },
        {
            "mesh" : 2,
            "name" : "Island",
            "rotation" : [
                -0.28334736824035645,
                -0.6478536128997803,
                -0.647853672504425,
                0.28334733843803406
            ],
            "scale" : [
                0.009999999776482582,
                0.009999999776482582,
                0.009999999776482582
            ],
            "translation" : [
                0.03225453197956085,
                -0.2859664261341095,
                -0.04436253383755684
            ]
        },
        {
            "mesh" : 3,
            "name" : "Mill",
            "rotation" : [
                0.6863970756530762,
                0.16987942159175873,
                -0.16987943649291992,
                0.686397135257721
            ],
            "scale" : [
                0.009999999776482582,
                0.009999999776482582,
                0.009999999776482582
            ],
            "translation" : [
                0.07664263248443604,
                0.5582965016365051,
                -0.23244524002075195
            ]
        },
        {
            "mesh" : 4,
            "name" : "propeller",
            "rotation" : [
                0.3613719642162323,
                0.6031420230865479,
                -0.6077913641929626,
                0.3690795600414276
            ],
            "scale" : [
                0.009999998845160007,
                0.009999999776482582,
                0.009999999776482582
            ],
            "translation" : [
                -0.0674794614315033,
                0.8359634876251221,
                -0.15669505298137665
            ]
        }
    ],
    "materials" : [
        {
            "doubleSided" : true,
            "name" : "wood",
            "pbrMetallicRoughness" : {
                "baseColorFactor" : [
                    0.3265306055545807,
                    0.1694968044757843,
                    0.012463000603020191,
                    1
                ],
                "metallicFactor" : 0,
                "roughnessFactor" : 0.5
            }
        },
        {
            "doubleSided" : true,
            "name" : "foliage",
            "pbrMetallicRoughness" : {
                "baseColorFactor" : [
                    0,
                    0.704081654548645,
                    0.2581632733345032,
                    1
                ],
                "metallicFactor" : 0,
                "roughnessFactor" : 0.5
            }
        },
        {
            "doubleSided" : true,
            "name" : "platform",
            "pbrMetallicRoughness" : {
                "baseColorFactor" : [
                    0.005997818894684315,
                    0.7857142686843872,
                    0.005997818894684315,
                    1
                ],
                "metallicFactor" : 0,
                "roughnessFactor" : 0.5
            }
        },
        {
            "doubleSided" : true,
            "name" : "ground",
            "pbrMetallicRoughness" : {
                "baseColorFactor" : [
                    0.6428571343421936,
                    0.4390403628349304,
                    0.20610687136650085,
                    1
                ],
                "metallicFactor" : 0,
                "roughnessFactor" : 0.5
            }
        },
        {
            "doubleSided" : true,
            "name" : "facade",
            "pbrMetallicRoughness" : {
                "baseColorFactor" : [
                    0.5714285969734192,
                    0.35390767455101013,
                    0.18756815791130066,
                    1
                ],
                "metallicFactor" : 0,
                "roughnessFactor" : 0.5
            }
        },
        {
            "doubleSided" : true,
            "name" : "facade1",
            "pbrMetallicRoughness" : {
                "baseColorFactor" : [
                    0.8103365302085876,
                    0.7571272850036621,
                    0.8265306353569031,
                    1
                ],
                "metallicFactor" : 0,
                "roughnessFactor" : 0.5
            }
        }
    ],
    "meshes" : [
        {
            "name" : "Untitled.004",
            "primitives" : [
                {
                    "attributes" : {
                        "POSITION" : 0,
                        "TEXCOORD_0" : 1,
                        "NORMAL" : 2
                    },
                    "indices" : 3,
                    "material" : 0
                },
                {
                    "attributes" : {
                        "POSITION" : 4,
                        "TEXCOORD_0" : 5,
                        "NORMAL" : 6
                    },
                    "indices" : 7,
                    "material" : 1
                }
            ]
        },
        {
            "name" : "Untitled.002",
            "primitives" : [
                {
                    "attributes" : {
                        "POSITION" : 8,
                        "TEXCOORD_0" : 9,
                        "NORMAL" : 10
                    },
                    "indices" : 11,
                    "material" : 2
                }
            ]
        },
        {
            "name" : "Untitled.003",
            "primitives" : [
                {
                    "attributes" : {
                        "POSITION" : 12,
                        "TEXCOORD_0" : 13,
                        "NORMAL" : 14
                    },
                    "indices" : 15,
                    "material" : 3
                }
            ]
        },
        {
            "name" : "Untitled.001",
            "primitives" : [
                {
                    "attributes" : {
                        "POSITION" : 16,
                        "TEXCOORD_0" : 17,
                        "NORMAL" : 18
                    },
                    "indices" : 19,
                    "material" : 4
                },
                {
                    "attributes" : {
                        "POSITION" : 20,
                        "TEXCOORD_0" : 21,
                        "NORMAL" : 22
                    },
                    "indices" : 23,
                    "material" : 5
                }
            ]
        },
        {
            "name" : "Untitled",
            "primitives" : [
                {
                    "attributes" : {
                        "POSITION" : 24,
                        "TEXCOORD_0" : 25,
                        "NORMAL" : 26
                    },
                    "indices" : 27,
                    "material" : 3
                },
                {
                    "attributes" : {
                        "POSITION" : 28,
                        "TEXCOORD_0" : 29,
                        "NORMAL" : 30
                    },
                    "indices" : 31,
                    "material" : 5
                }
            ]
        }
    ],
    "accessors" : [
        {
            "bufferView" : 0,
            "componentType" : 5126,
            "count" : 71,
            "max" : [
                6.641221046447754,
                10.153261184692383,
                0.18842050433158875
            ],
            "min" : [
                -4.924267292022705,
                -9.97599983215332,
                -23.31625747680664
            ],
            "type" : "VEC3"
        },
        {
            "bufferView" : 1,
            "componentType" : 5126,
            "count" : 71,
            "type" : "VEC2"
        },
        {
            "bufferView" : 2,
            "componentType" : 5126,
            "count" : 71,
            "type" : "VEC3"
        },
        {
            "bufferView" : 3,
            "componentType" : 5123,
            "count" : 108,
            "type" : "SCALAR"
        },
        {
            "bufferView" : 4,
            "componentType" : 5126,
            "count" : 2352,
            "max" : [
                19.47820472717285,
                26.712648391723633,
                -9.212320327758789
            ],
            "min" : [
                -17.0523681640625,
                -23.989776611328125,
                -42.08319854736328
            ],
            "type" : "VEC3"
        },
        {
            "bufferView" : 5,
            "componentType" : 5126,
            "count" : 2352,
            "type" : "VEC2"
        },
        {
            "bufferView" : 6,
            "componentType" : 5126,
            "count" : 2352,
            "type" : "VEC3"
        },
        {
            "bufferView" : 7,
            "componentType" : 5123,
            "count" : 3528,
            "type" : "SCALAR"
        },
        {
            "bufferView" : 8,
            "componentType" : 5126,
            "count" : 84,
            "max" : [
                51.27503204345703,
                3.975393533706665,
                49.31048583984375
            ],
            "min" : [
                -51.27503204345703,
                -3.975393533706665,
                -49.31048583984375
            ],
            "type" : "VEC3"
        },
        {
            "bufferView" : 9,
            "componentType" : 5126,
            "count" : 84,
            "type" : "VEC2"
        },
        {
            "bufferView" : 10,
            "componentType" : 5126,
            "count" : 84,
            "type" : "VEC3"
        },
        {
            "bufferView" : 11,
            "componentType" : 5123,
            "count" : 180,
            "type" : "SCALAR"
        },
        {
            "bufferView" : 12,
            "componentType" : 5126,
            "count" : 469,
            "max" : [
                51.647335052490234,
                55.21270751953125,
                53.349082946777344
            ],
            "min" : [
                -51.647335052490234,
                -55.21270751953125,
                -53.349082946777344
            ],
            "type" : "VEC3"
        },
        {
            "bufferView" : 13,
            "componentType" : 5126,
            "count" : 469,
            "type" : "VEC2"
        },
        {
            "bufferView" : 14,
            "componentType" : 5126,
            "count" : 469,
            "type" : "VEC3"
        },
        {
            "bufferView" : 15,
            "componentType" : 5123,
            "count" : 645,
            "type" : "SCALAR"
        },
        {
            "bufferView" : 16,
            "componentType" : 5126,
            "count" : 212,
            "max" : [
                19.148300170898438,
                19.148300170898438,
                39.13275146484375
            ],
            "min" : [
                -19.148300170898438,
                -19.148300170898438,
                -39.13275146484375
            ],
            "type" : "VEC3"
        },
        {
            "bufferView" : 17,
            "componentType" : 5126,
            "count" : 212,
            "type" : "VEC2"
        },
        {
            "bufferView" : 18,
            "componentType" : 5126,
            "count" : 212,
            "type" : "VEC3"
        },
        {
            "bufferView" : 19,
            "componentType" : 5123,
            "count" : 324,
            "type" : "SCALAR"
        },
        {
            "bufferView" : 20,
            "componentType" : 5126,
            "count" : 42,
            "max" : [
                19.148300170898438,
                19.148300170898438,
                39.13275146484375
            ],
            "min" : [
                -19.148300170898438,
                -19.148300170898438,
                -21.1347599029541
            ],
            "type" : "VEC3"
        },
        {
            "bufferView" : 21,
            "componentType" : 5126,
            "count" : 42,
            "type" : "VEC2"
        },
        {
            "bufferView" : 22,
            "componentType" : 5126,
            "count" : 42,
            "type" : "VEC3"
        },
        {
            "bufferView" : 23,
            "componentType" : 5123,
            "count" : 72,
            "type" : "SCALAR"
        },
        {
            "bufferView" : 24,
            "componentType" : 5126,
            "count" : 40,
            "max" : [
                20.347558975219727,
                -1.3403810262680054,
                21.029830932617188
            ],
            "min" : [
                -20.347558975219727,
                -1.3403810262680054,
                -17.721527099609375
            ],
            "type" : "VEC3"
        },
        {
            "bufferView" : 25,
            "componentType" : 5126,
            "count" : 40,
            "type" : "VEC2"
        },
        {
            "bufferView" : 26,
            "componentType" : 5126,
            "count" : 40,
            "type" : "VEC3"
        },
        {
            "bufferView" : 27,
            "componentType" : 5123,
            "count" : 90,
            "type" : "SCALAR"
        },
        {
            "bufferView" : 28,
            "componentType" : 5126,
            "count" : 205,
            "max" : [
                30.549083709716797,
                1.3403810262680054,
                29.053903579711914
            ],
            "min" : [
                -30.549083709716797,
                -1.3403810262680054,
                -29.053903579711914
            ],
            "type" : "VEC3"
        },
        {
            "bufferView" : 29,
            "componentType" : 5126,
            "count" : 205,
            "type" : "VEC2"
        },
        {
            "bufferView" : 30,
            "componentType" : 5126,
            "count" : 205,
            "type" : "VEC3"
        },
        {
            "bufferView" : 31,
            "componentType" : 5123,
            "count" : 468,
            "type" : "SCALAR"
        }
    ],
    "bufferViews" : [
        {
            "buffer" : 0,
            "byteLength" : 852,
            "byteOffset" : 0,
            "target" : 34962
        },
        {
            "buffer" : 0,
            "byteLength" : 568,
            "byteOffset" : 852,
            "target" : 34962
        },
        {
            "buffer" : 0,
            "byteLength" : 852,
            "byteOffset" : 1420,
            "target" : 34962
        },
        {
            "buffer" : 0,
            "byteLength" : 216,
            "byteOffset" : 2272,
            "target" : 34963
        },
        {
            "buffer" : 0,
            "byteLength" : 28224,
            "byteOffset" : 2488,
            "target" : 34962
        },
        {
            "buffer" : 0,
            "byteLength" : 18816,
            "byteOffset" : 30712,
            "target" : 34962
        },
        {
            "buffer" : 0,
            "byteLength" : 28224,
            "byteOffset" : 49528,
            "target" : 34962
        },
        {
            "buffer" : 0,
            "byteLength" : 7056,
            "byteOffset" : 77752,
            "target" : 34963
        },
        {
            "buffer" : 0,
            "byteLength" : 1008,
            "byteOffset" : 84808,
            "target" : 34962
        },
        {
            "buffer" : 0,
            "byteLength" : 672,
            "byteOffset" : 85816,
            "target" : 34962
        },
        {
            "buffer" : 0,
            "byteLength" : 1008,
            "byteOffset" : 86488,
            "target" : 34962
        },
        {
            "buffer" : 0,
            "byteLength" : 360,
            "byteOffset" : 87496,
            "target" : 34963
        },
        {
            "buffer" : 0,
            "byteLength" : 5628,
            "byteOffset" : 87856,
            "target" : 34962
        },
        {
            "buffer" : 0,
            "byteLength" : 3752,
            "byteOffset" : 93484,
            "target" : 34962
        },
        {
            "buffer" : 0,
            "byteLength" : 5628,
            "byteOffset" : 97236,
            "target" : 34962
        },
        {
            "buffer" : 0,
            "byteLength" : 1290,
            "byteOffset" : 102864,
            "target" : 34963
        },
        {
            "buffer" : 0,
            "byteLength" : 2544,
            "byteOffset" : 104156,
            "target" : 34962
        },
        {
            "buffer" : 0,
            "byteLength" : 1696,
            "byteOffset" : 106700,
            "target" : 34962
        },
        {
            "buffer" : 0,
            "byteLength" : 2544,
            "byteOffset" : 108396,
            "target" : 34962
        },
        {
            "buffer" : 0,
            "byteLength" : 648,
            "byteOffset" : 110940,
            "target" : 34963
        },
        {
            "buffer" : 0,
            "byteLength" : 504,
            "byteOffset" : 111588,
            "target" : 34962
        },
        {
            "buffer" : 0,
            "byteLength" : 336,
            "byteOffset" : 112092,
            "target" : 34962
        },
        {
            "buffer" : 0,
            "byteLength" : 504,
            "byteOffset" : 112428,
            "target" : 34962
        },
        {
            "buffer" : 0,
            "byteLength" : 144,
            "byteOffset" : 112932,
            "target" : 34963
        },
        {
            "buffer" : 0,
            "byteLength" : 480,
            "byteOffset" : 113076,
            "target" : 34962
        },
        {
            "buffer" : 0,
            "byteLength" : 320,
            "byteOffset" : 113556,
            "target" : 34962
        },
        {
            "buffer" : 0,
            "byteLength" : 480,
            "byteOffset" : 113876,
            "target" : 34962
        },
        {
            "buffer" : 0,
            "byteLength" : 180,
            "byteOffset" : 114356,
            "target" : 34963
        },
        {
            "buffer" : 0,
            "byteLength" : 2460,
            "byteOffset" : 114536,
            "target" : 34962
        },
        {
            "buffer" : 0,
            "byteLength" : 1640,
            "byteOffset" : 116996,
            "target" : 34962
        },
        {
            "buffer" : 0,
            "byteLength" : 2460,
            "byteOffset" : 118636,
            "target" : 34962
        },
        {
            "buffer" : 0,
            "byteLength" : 936,
            "byteOffset" : 121096,
            "target" : 34963
        }
    ],
    "buffers" : [
        {
            "byteLength" : 122032,
            "uri" : "data:application/octet-stream;base64,"
        }
    ]
}
